<svg width="48" height="20" viewBox="0 0 48 37"  fill="currentColor" xmlns="http://www.w3.org/2000/svg">
<path d="M44.9597 26.5547C45.1512 25.5517 45.1512 24.5274 44.9597 23.5244L46.8597 22.4644C47.0806 22.3435 47.1764 22.0945 47.1027 21.8598C46.6093 20.3233 45.7624 18.929 44.6577 17.7766C44.4884 17.5988 44.2159 17.5561 43.9949 17.6771L42.0949 18.737C41.2922 18.0754 40.3717 17.5632 39.3775 17.2218V15.102C39.3775 14.8601 39.2007 14.6467 38.9577 14.5969C37.3154 14.2412 35.6437 14.2555 34.0825 14.5969C33.8394 14.6467 33.6627 14.8601 33.6627 15.102V17.2218C32.6685 17.5632 31.7479 18.0754 30.9452 18.737L29.0452 17.6771C28.8316 17.5561 28.5518 17.5988 28.3824 17.7766C27.2777 18.929 26.4308 20.3233 25.9374 21.8598C25.8638 22.0945 25.9669 22.3435 26.1805 22.4644L28.0805 23.5244C27.889 24.5274 27.889 25.5517 28.0805 26.5547L26.1805 27.6146C25.9595 27.7355 25.8638 27.9845 25.9374 28.2193C26.4308 29.7558 27.2777 31.1429 28.3824 32.3024C28.5518 32.4803 28.8243 32.5229 29.0452 32.402L30.9452 31.3421C31.7479 32.0037 32.6685 32.5158 33.6627 32.8573V34.9771C33.6627 35.219 33.8394 35.4324 34.0825 35.4822C35.7247 35.8378 37.3964 35.8236 38.9577 35.4822C39.2007 35.4324 39.3775 35.219 39.3775 34.9771V32.8573C40.3717 32.5158 41.2922 32.0037 42.0949 31.3421L43.9949 32.402C44.2085 32.5229 44.4884 32.4803 44.6577 32.3024C45.7624 31.15 46.6093 29.7558 47.1027 28.2193C47.1764 27.9845 47.0733 27.7355 46.8597 27.6146L44.9597 26.5547ZM36.5274 28.4896C34.5538 28.4896 32.9557 26.9388 32.9557 25.0395C32.9557 23.1402 34.5611 21.5895 36.5274 21.5895C38.4937 21.5895 40.0992 23.1402 40.0992 25.0395C40.0992 26.9388 38.5011 28.4896 36.5274 28.4896ZM16.4963 18.2106C21.7029 18.2106 25.9227 14.1345 25.9227 9.10528C25.9227 4.07604 21.7029 0 16.4963 0C11.2896 0 7.06983 4.07604 7.06983 9.10528C7.06983 14.1345 11.2896 18.2106 16.4963 18.2106ZM31.3134 34.3227C31.1441 34.2373 30.9747 34.1377 30.8127 34.0452L30.2309 34.3724C29.789 34.6143 29.2882 34.7495 28.7874 34.7495C27.9847 34.7495 27.2115 34.4222 26.6591 33.8532C25.3115 32.4447 24.2804 30.7303 23.6986 28.9022C23.2936 27.6431 23.8386 26.3128 25.0169 25.6513L25.5987 25.3241C25.5913 25.1391 25.5913 24.9542 25.5987 24.7692L25.0169 24.442C23.8386 23.7876 23.2936 22.4502 23.6986 21.1911C23.7649 20.9848 23.8607 20.7785 23.9343 20.5723C23.6545 20.5509 23.382 20.4869 23.0948 20.4869H21.8649C20.23 21.2125 18.411 21.625 16.4963 21.625C14.5815 21.625 12.7699 21.2125 11.1276 20.4869H9.89776C4.43337 20.4869 0 24.7692 0 30.0474V33.0067C0 34.8917 1.58335 36.4211 3.53491 36.4211H29.4576C30.2014 36.4211 30.8937 36.1935 31.4607 35.8165C31.3724 35.5462 31.3134 35.2687 31.3134 34.9771V34.3227Z" fill="white"/>
</svg>
