<svg width="110" height="110" viewBox="0 0 110 110" fill="none" xmlns="http://www.w3.org/2000/svg">
<path opacity="0.3" d="M55 0C85.3831 0 110 24.6169 110 55C110 85.3831 85.3831 110 55 110C24.6169 110 0 85.3831 0 55C0 24.6169 24.6169 0 55 0ZM48.5907 31.8468L65.3347 47.9032H24.8387C21.8891 47.9032 19.5161 50.2762 19.5161 53.2258V56.7742C19.5161 59.7238 21.8891 62.0968 24.8387 62.0968H65.3347L48.5907 78.1532C46.4395 80.2157 46.3952 83.6532 48.502 85.7601L50.9415 88.1774C53.0262 90.2621 56.3972 90.2621 58.4597 88.1774L87.8891 58.7702C89.9738 56.6855 89.9738 53.3145 87.8891 51.252L58.4597 21.8004C56.375 19.7157 53.004 19.7157 50.9415 21.8004L48.502 24.2177C46.3952 26.3468 46.4395 29.7843 48.5907 31.8468Z" fill="#2596BE"/>
</svg>
