<svg width="15" height="15" viewBox="0 0 42 42" fill="none" xmlns="http://www.w3.org/2000/svg">
<path d="M40.1442 32.1894L28.4763 21.1372L39.5285 9.46931C40.8847 8.03757 40.8235 5.7766 39.3917 4.4204L36.7989 1.96435C35.3671 0.608144 33.1062 0.669406 31.75 2.10115L20.6977 13.769L9.02988 2.71676C7.59813 1.36056 5.33717 1.42182 3.98097 2.85357L1.52491 5.44642C0.168711 6.87817 0.229973 9.13913 1.66172 10.4953L13.3296 21.5476L2.27733 33.2154C0.921128 34.6472 0.98239 36.9081 2.41413 38.2643L5.00699 40.7204C6.43873 42.0766 8.6997 42.0153 10.0559 40.5836L21.1081 28.9157L32.776 39.968C34.2077 41.3242 36.4687 41.2629 37.8249 39.8312L40.281 37.2383C41.6372 35.8066 41.5759 33.5456 40.1442 32.1894Z" fill="black"/>
</svg>
