<svg width="20" height="20" viewBox="0 0 41 38" fill="none" xmlns="http://www.w3.org/2000/svg">
<path d="M0 34.4375C0 36.4043 1.96763 38 4.39286 38H36.6071C39.0324 38 41 36.4043 41 34.4375V14.25H0V34.4375ZM29.2857 19.8906C29.2857 19.4008 29.7799 19 30.3839 19H34.0446C34.6487 19 35.1429 19.4008 35.1429 19.8906V22.8594C35.1429 23.3492 34.6487 23.75 34.0446 23.75H30.3839C29.7799 23.75 29.2857 23.3492 29.2857 22.8594V19.8906ZM29.2857 29.3906C29.2857 28.9008 29.7799 28.5 30.3839 28.5H34.0446C34.6487 28.5 35.1429 28.9008 35.1429 29.3906V32.3594C35.1429 32.8492 34.6487 33.25 34.0446 33.25H30.3839C29.7799 33.25 29.2857 32.8492 29.2857 32.3594V29.3906ZM17.5714 19.8906C17.5714 19.4008 18.0656 19 18.6696 19H22.3304C22.9344 19 23.4286 19.4008 23.4286 19.8906V22.8594C23.4286 23.3492 22.9344 23.75 22.3304 23.75H18.6696C18.0656 23.75 17.5714 23.3492 17.5714 22.8594V19.8906ZM17.5714 29.3906C17.5714 28.9008 18.0656 28.5 18.6696 28.5H22.3304C22.9344 28.5 23.4286 28.9008 23.4286 29.3906V32.3594C23.4286 32.8492 22.9344 33.25 22.3304 33.25H18.6696C18.0656 33.25 17.5714 32.8492 17.5714 32.3594V29.3906ZM5.85714 19.8906C5.85714 19.4008 6.35134 19 6.95536 19H10.6161C11.2201 19 11.7143 19.4008 11.7143 19.8906V22.8594C11.7143 23.3492 11.2201 23.75 10.6161 23.75H6.95536C6.35134 23.75 5.85714 23.3492 5.85714 22.8594V19.8906ZM5.85714 29.3906C5.85714 28.9008 6.35134 28.5 6.95536 28.5H10.6161C11.2201 28.5 11.7143 28.9008 11.7143 29.3906V32.3594C11.7143 32.8492 11.2201 33.25 10.6161 33.25H6.95536C6.35134 33.25 5.85714 32.8492 5.85714 32.3594V29.3906ZM36.6071 4.75H32.2143V1.1875C32.2143 0.534375 31.5554 0 30.75 0H27.8214C27.0161 0 26.3571 0.534375 26.3571 1.1875V4.75H14.6429V1.1875C14.6429 0.534375 13.9839 0 13.1786 0H10.25C9.44464 0 8.78571 0.534375 8.78571 1.1875V4.75H4.39286C1.96763 4.75 0 6.3457 0 8.3125V11.875H41V8.3125C41 6.3457 39.0324 4.75 36.6071 4.75Z" fill="#2596BE"/>
</svg>
