<svg width="20" height="20" viewBox="0 0 27 31" fill="none" xmlns="http://www.w3.org/2000/svg">
<path d="M1.92857 27.9643C1.92857 28.7315 2.23335 29.4673 2.77587 30.0099C3.31839 30.5524 4.0542 30.8572 4.82143 30.8572H22.1786C22.9458 30.8572 23.6816 30.5524 24.2241 30.0099C24.7666 29.4673 25.0714 28.7315 25.0714 27.9643V7.7143H1.92857V27.9643ZM18.3214 12.5357C18.3214 12.28 18.423 12.0347 18.6039 11.8539C18.7847 11.673 19.03 11.5714 19.2857 11.5714C19.5415 11.5714 19.7867 11.673 19.9676 11.8539C20.1484 12.0347 20.25 12.28 20.25 12.5357V26.0357C20.25 26.2915 20.1484 26.5367 19.9676 26.7176C19.7867 26.8984 19.5415 27 19.2857 27C19.03 27 18.7847 26.8984 18.6039 26.7176C18.423 26.5367 18.3214 26.2915 18.3214 26.0357V12.5357ZM12.5357 12.5357C12.5357 12.28 12.6373 12.0347 12.8181 11.8539C12.999 11.673 13.2443 11.5714 13.5 11.5714C13.7557 11.5714 14.001 11.673 14.1819 11.8539C14.3627 12.0347 14.4643 12.28 14.4643 12.5357V26.0357C14.4643 26.2915 14.3627 26.5367 14.1819 26.7176C14.001 26.8984 13.7557 27 13.5 27C13.2443 27 12.999 26.8984 12.8181 26.7176C12.6373 26.5367 12.5357 26.2915 12.5357 26.0357V12.5357ZM6.75 12.5357C6.75 12.28 6.85159 12.0347 7.03243 11.8539C7.21327 11.673 7.45854 11.5714 7.71429 11.5714C7.97003 11.5714 8.2153 11.673 8.39614 11.8539C8.57698 12.0347 8.67857 12.28 8.67857 12.5357V26.0357C8.67857 26.2915 8.57698 26.5367 8.39614 26.7176C8.2153 26.8984 7.97003 27 7.71429 27C7.45854 27 7.21327 26.8984 7.03243 26.7176C6.85159 26.5367 6.75 26.2915 6.75 26.0357V12.5357ZM26.0357 1.92858H18.8036L18.2371 0.801573C18.117 0.560631 17.9322 0.357955 17.7033 0.216347C17.4744 0.0747392 17.2105 -0.000182489 16.9413 1.05666e-05H10.0527C9.78411 -0.00102185 9.52069 0.0736205 9.29258 0.215386C9.06448 0.357151 8.88092 0.560306 8.76295 0.801573L8.19643 1.92858H0.964286C0.708541 1.92858 0.463271 2.03018 0.282433 2.21101C0.101594 2.39185 0 2.63712 0 2.89287L0 4.82144C0 5.07718 0.101594 5.32245 0.282433 5.50329C0.463271 5.68413 0.708541 5.78573 0.964286 5.78573H26.0357C26.2915 5.78573 26.5367 5.68413 26.7176 5.50329C26.8984 5.32245 27 5.07718 27 4.82144V2.89287C27 2.63712 26.8984 2.39185 26.7176 2.21101C26.5367 2.03018 26.2915 1.92858 26.0357 1.92858Z" fill="#2596BE"/>
</svg>
