<svg width="30" height="30" viewBox="0 0 70 70" fill="none" xmlns="http://www.w3.org/2000/svg">
<path d="M70 35C70 54.3347 54.3347 70 35 70C15.6653 70 0 54.3347 0 35C0 15.6653 15.6653 0 35 0C54.3347 0 70 15.6653 70 35ZM28.7903 18.629V35H18.7843C17.2742 35 16.5121 36.8347 17.5847 37.8931L33.8004 54.0242C34.4637 54.6875 35.5222 54.6875 36.1855 54.0242L52.4012 37.8931C53.4738 36.8206 52.7117 35 51.2016 35H41.2097V18.629C41.2097 17.6976 40.4476 16.9355 39.5161 16.9355H30.4839C29.5524 16.9355 28.7903 17.6976 28.7903 18.629Z" fill="#2596BE"/>
</svg>
