<svg width="43" height="39" viewBox="0 0 43 39" fill="none" xmlns="http://www.w3.org/2000/svg">
<path d="M30.0552 6.33112L36.7889 13.2032C37.0726 13.4927 37.0726 13.965 36.7889 14.2545L20.4847 30.8937L13.5569 31.6785C12.6313 31.7851 11.8474 30.9852 11.9519 30.0404L12.7208 22.9703L29.025 6.33112C29.3087 6.04161 29.7715 6.04161 30.0552 6.33112ZM42.149 4.58644L38.5059 0.868529C37.3712 -0.28951 35.5273 -0.28951 34.3851 0.868529L31.7424 3.56554C31.4587 3.85505 31.4587 4.32741 31.7424 4.61692L38.476 11.489C38.7597 11.7785 39.2226 11.7785 39.5062 11.489L42.149 8.79195C43.2837 7.62629 43.2837 5.74448 42.149 4.58644ZM28.6667 26.3682V34.124H4.77778V9.74429H21.933C22.1719 9.74429 22.3958 9.64524 22.5675 9.47763L25.5536 6.43016C26.121 5.85114 25.7179 4.86833 24.9191 4.86833H3.58333C1.60503 4.86833 0 6.50635 0 8.5253V35.343C0 37.362 1.60503 39 3.58333 39H29.8611C31.8394 39 33.4444 37.362 33.4444 35.343V23.3208C33.4444 22.5056 32.4814 22.1018 31.9141 22.6732L28.9279 25.7206C28.7637 25.8959 28.6667 26.1244 28.6667 26.3682Z" fill="#2596BE"/>
</svg>
