<svg width="50" height="50" viewBox="0 0 111 111" fill="none" xmlns="http://www.w3.org/2000/svg">
<path opacity="0.3" d="M56.4403 110.713C26.0598 111.112 1.12177 86.8202 0.72278 56.4397C0.323793 26.0593 24.6153 1.12121 54.9958 0.72222C85.3762 0.323233 110.314 24.6148 110.713 54.9952C111.112 85.3757 86.8207 110.314 56.4403 110.713ZM62.4308 78.7845L45.4774 62.9494L85.9699 62.4176C88.9193 62.3788 91.2609 59.9749 91.2221 57.0255L91.1755 53.4775C91.1368 50.5281 88.7329 48.1865 85.7835 48.2252L45.291 48.757L61.8227 32.4821C63.9467 30.3915 63.9459 26.9537 61.8115 24.8747L59.3405 22.4896C57.2286 20.4325 53.8579 20.4768 51.823 22.5883L22.7822 52.3795C20.7251 54.4914 20.7694 57.8621 22.881 59.897L52.6946 88.9596C54.8065 91.0168 58.1772 90.9725 60.2121 88.8609L62.6197 86.4117C64.6984 84.2552 64.6089 80.8186 62.4308 78.7845Z" fill="#2596BE"/>
</svg>
