<svg width="35" height="31" viewBox="0 0 35 31" fill="none" xmlns="http://www.w3.org/2000/svg">
<path d="M20.1188 28.7632L18.3847 30.321C17.6504 30.9807 16.463 30.9807 15.7365 30.321L0.55072 16.6863C-0.183573 16.0266 -0.183573 14.96 0.55072 14.3074L15.7365 0.665623C16.4708 0.00599028 17.6582 0.00599028 18.3847 0.665623L20.1188 2.22348C20.861 2.89013 20.8453 3.97782 20.0876 4.63044L10.6746 12.6864H33.1252C34.1642 12.6864 35 13.4372 35 14.3705V16.6161C35 17.5494 34.1642 18.3003 33.1252 18.3003H10.6746L20.0876 26.3562C20.8531 27.0088 20.8688 28.0965 20.1188 28.7632Z" fill="#2596BE"/>
</svg>
