<svg width="50" height="50" viewBox="0 0 73 76" fill="none" xmlns="http://www.w3.org/2000/svg">
<g clip-path="url(#clip0_815_1269)">
<g filter="url(#filter0_dd_815_1269)">
<rect x="2" y="5" width="68" height="68" rx="34" fill="white"/>
</g>
<path d="M46.7071 39.7071C47.0976 39.3166 47.0976 38.6834 46.7071 38.2929L40.3431 31.9289C39.9526 31.5384 39.3195 31.5384 38.9289 31.9289C38.5384 32.3195 38.5384 32.9526 38.9289 33.3431L44.5858 39L38.9289 44.6569C38.5384 45.0474 38.5384 45.6805 38.9289 46.0711C39.3195 46.4616 39.9526 46.4616 40.3431 46.0711L46.7071 39.7071ZM26 40L46 40L46 38L26 38L26 40Z" fill="#2596BE"/>
</g>
<defs>
<filter id="filter0_dd_815_1269" x="-6" y="-3" width="84" height="84" filterUnits="userSpaceOnUse" color-interpolation-filters="sRGB">
<feFlood flood-opacity="0" result="BackgroundImageFix"/>
<feColorMatrix in="SourceAlpha" type="matrix" values="0 0 0 0 0 0 0 0 0 0 0 0 0 0 0 0 0 0 127 0" result="hardAlpha"/>
<feOffset dx="-4" dy="4"/>
<feGaussianBlur stdDeviation="2"/>
<feComposite in2="hardAlpha" operator="out"/>
<feColorMatrix type="matrix" values="0 0 0 0 0.145098 0 0 0 0 0.588235 0 0 0 0 0.745098 0 0 0 0.25 0"/>
<feBlend mode="normal" in2="BackgroundImageFix" result="effect1_dropShadow_815_1269"/>
<feColorMatrix in="SourceAlpha" type="matrix" values="0 0 0 0 0 0 0 0 0 0 0 0 0 0 0 0 0 0 127 0" result="hardAlpha"/>
<feOffset dx="4" dy="-4"/>
<feGaussianBlur stdDeviation="2"/>
<feComposite in2="hardAlpha" operator="out"/>
<feColorMatrix type="matrix" values="0 0 0 0 0.145098 0 0 0 0 0.588235 0 0 0 0 0.745098 0 0 0 0.25 0"/>
<feBlend mode="normal" in2="effect1_dropShadow_815_1269" result="effect2_dropShadow_815_1269"/>
<feBlend mode="normal" in="SourceGraphic" in2="effect2_dropShadow_815_1269" result="shape"/>
</filter>
<clipPath id="clip0_815_1269">
<rect width="73" height="76" fill="white"/>
</clipPath>
</defs>
</svg>
