<svg width="111" height="110" viewBox="0 0 111 110" fill="none" xmlns="http://www.w3.org/2000/svg">
<path d="M111 55C111 85.3757 86.1518 110 55.5 110C24.8482 110 0 85.3757 0 55C0 24.6243 24.8482 0 55.5 0C86.1518 0 111 24.6243 111 55ZM4.78006 55C4.78006 82.7595 27.4881 105.263 55.5 105.263C83.5118 105.263 106.22 82.7595 106.22 55C106.22 27.2405 83.5118 4.73699 55.5 4.73699C27.4881 4.73699 4.78006 27.2405 4.78006 55Z" fill="#2596BE"/>
<path d="M17.6615 36.2733L0.761491 20.1478C-0.25383 19.179 -0.25383 17.6082 0.761491 16.6393L4.43836 13.1309C5.45368 12.162 7.10001 12.162 8.11533 13.1309L19.5 23.9937L43.8847 0.726594C44.9 -0.242198 46.5463 -0.242198 47.5616 0.726594L51.2385 4.23506C52.2538 5.20385 52.2538 6.77464 51.2385 7.74353L21.3385 36.2734C20.3231 37.2422 18.6768 37.2422 17.6615 36.2733Z" fill="#2596BE"/>
</svg>
